<svg width="220" height="34" viewBox="0 0 220 34" fill="none" xmlns="http://www.w3.org/2000/svg">
<g clip-path="url(#clip0_1516_27)">
<path d="M218.117 27.8183C217.033 27.8183 216.177 26.9597 216.177 25.8722C216.177 24.7846 217.033 23.926 218.117 23.926C219.201 23.926 220.057 24.7846 220.057 25.8722C220 26.9597 219.144 27.8183 218.117 27.8183ZM218.117 24.2695C217.204 24.2695 216.52 25.0136 216.52 25.8722C216.52 26.788 217.262 27.4748 218.117 27.4748C219.03 27.4748 219.715 26.7307 219.715 25.8722C219.715 24.9563 218.973 24.2695 218.117 24.2695ZM218.631 26.9597L218.06 26.1011H217.661V26.9597H217.376V24.7846H218.288C218.631 24.7846 218.973 25.0708 218.973 25.4715C218.973 25.9866 218.517 26.1011 218.403 26.1011L218.973 26.9597H218.631ZM218.288 25.0708H217.718V25.8722H218.288C218.46 25.8722 218.688 25.7004 218.688 25.4715C218.688 25.1853 218.46 25.0708 218.288 25.0708Z" fill="black"/>
<path d="M14.1494 27.8181C13.5788 27.8181 13.1795 27.7608 12.8942 27.5891C12.6089 27.4174 12.3807 27.1312 12.2095 26.6733L11.8102 25.643C11.3537 26.0437 10.8402 26.3871 10.4409 26.7305C9.98444 27.0167 9.52801 27.3029 9.07158 27.5319C8.61514 27.7608 8.10166 27.9326 7.53112 27.9898C7.01763 28.1043 6.39004 28.1615 5.76245 28.1615C4.90664 28.1615 4.10788 28.047 3.36618 27.8181C2.62448 27.5891 2.05394 27.2457 1.54046 26.7878C1.02697 26.3299 0.627593 25.8147 0.399378 25.1278C0.114108 24.441 0 23.6969 0 22.8383C0 22.1514 0.171162 21.4645 0.513485 20.7204C0.855809 19.9763 1.4834 19.3467 2.28216 18.7743C3.13797 18.2019 4.27905 17.6868 5.70539 17.2861C7.13174 16.8854 8.95747 16.6565 11.1826 16.5992V15.7979C11.1826 14.6531 10.9544 13.8517 10.4979 13.3366C10.0415 12.8214 9.4139 12.5925 8.55809 12.5925C7.87344 12.5925 7.3029 12.6497 6.90353 12.8214C6.4471 12.9932 6.10477 13.1649 5.76245 13.3366C5.42012 13.5083 5.0778 13.68 4.79253 13.8517C4.45021 14.0235 4.10788 14.0807 3.65145 14.0807C3.25207 14.0807 2.90975 13.9662 2.62448 13.7945C2.33921 13.6228 2.111 13.3366 1.93983 13.1076L0.912863 11.3332C2.05394 10.3029 3.36618 9.55882 4.79253 9.04367C6.21888 8.52852 7.70228 8.29956 9.35685 8.29956C10.4979 8.29956 11.582 8.47128 12.4948 8.87195C13.4077 9.27262 14.2064 9.78778 14.8911 10.4746C15.5187 11.1615 16.0322 11.9629 16.3745 12.8787C16.7168 13.7945 16.888 14.8248 16.888 15.9124V27.9326H14.1494V27.8181ZM7.58817 24.2693C8.32988 24.2693 8.95747 24.1548 9.52801 23.8686C10.0985 23.5824 10.6691 23.1817 11.2396 22.6093V19.9191C10.0985 19.9763 9.12863 20.0908 8.38693 20.2053C7.64523 20.377 7.07469 20.5487 6.61826 20.7777C6.16183 21.0066 5.87656 21.2356 5.70539 21.5218C5.53423 21.808 5.47718 22.0942 5.47718 22.4376C5.47718 23.0672 5.64834 23.5824 5.99066 23.8113C6.33299 24.1548 6.90353 24.2693 7.58817 24.2693Z" fill="#0098C1"/>
<path d="M20.8818 33.8856V8.52874H24.4192C24.7615 8.52874 25.1038 8.58598 25.332 8.75769C25.5603 8.92941 25.7314 9.15837 25.8455 9.5018L26.2449 10.9328C26.5872 10.5321 26.9866 10.1314 27.443 9.84524C27.8424 9.5018 28.2988 9.21561 28.8123 8.98665C29.3258 8.75769 29.8393 8.52874 30.4098 8.41426C30.9804 8.29978 31.608 8.1853 32.2356 8.1853C33.2625 8.1853 34.1754 8.41426 35.0312 8.87217C35.887 9.33008 36.6287 9.95971 37.2563 10.8183C37.8839 11.6769 38.3403 12.7072 38.6827 13.9092C39.025 15.1112 39.1961 16.485 39.1961 18.0304C39.1961 19.4614 38.9679 20.8351 38.5686 22.0372C38.1692 23.2392 37.5986 24.3267 36.8569 25.2425C36.1152 26.1584 35.2594 26.8452 34.2895 27.3604C33.2625 27.8755 32.1785 28.1045 30.9233 28.1045C29.8964 28.1045 29.0976 27.99 28.413 27.7038C27.7283 27.4176 27.1007 27.017 26.5872 26.559V33.9429H20.8818V33.8856ZM30.2387 12.5927C29.8393 12.5927 29.4399 12.6499 29.0976 12.7072C28.7553 12.7644 28.47 12.8789 28.1277 13.0506C27.8424 13.2223 27.5571 13.3941 27.3289 13.623C27.1007 13.852 26.8154 14.1382 26.5872 14.4244V22.6095C27.0437 23.0675 27.5001 23.4109 28.0136 23.6398C28.5271 23.8116 29.0406 23.926 29.6111 23.926C30.1246 23.926 30.6381 23.8116 31.0945 23.5826C31.5509 23.3537 31.9503 23.0102 32.2356 22.5523C32.5779 22.0944 32.8061 21.4648 32.9773 20.7207C33.1484 19.9765 33.2625 19.0607 33.2625 18.0304C33.2625 17.0001 33.2055 16.1415 33.0343 15.4547C32.8632 14.7678 32.692 14.1954 32.4067 13.7947C32.1215 13.3941 31.8362 13.0506 31.4368 12.8789C31.0945 12.6499 30.6951 12.5927 30.2387 12.5927Z" fill="#0098C1"/>
<path d="M50.4927 8.24243C51.7479 8.24243 52.946 8.41415 53.973 8.81482C54.9999 9.2155 55.9128 9.78789 56.7116 10.532C57.5103 11.2761 58.0809 12.1919 58.4802 13.2795C58.8796 14.367 59.1078 15.6263 59.1078 17C59.1078 17.4579 59.1078 17.8014 59.0508 18.0303C58.9937 18.3165 58.9367 18.5455 58.8226 18.6599C58.7084 18.8317 58.5943 18.9461 58.4232 19.0034C58.252 19.0606 58.0238 19.1179 57.7956 19.1179H46.7271C46.8983 20.7205 47.4118 21.8653 48.2105 22.6094C49.0093 23.3535 50.0363 23.697 51.2914 23.697C51.9761 23.697 52.5466 23.6397 53.0031 23.468C53.4595 23.2963 53.9159 23.1246 54.3153 22.9529C54.7147 22.7812 55.057 22.5522 55.3423 22.4377C55.6846 22.266 55.9699 22.2088 56.3122 22.2088C56.7686 22.2088 57.1109 22.3805 57.3392 22.7239L58.9937 24.7845C58.4232 25.4714 57.7385 26.0438 57.0539 26.4445C56.3692 26.8451 55.6846 27.1886 54.9429 27.4748C54.2012 27.7037 53.5165 27.8754 52.7748 27.9899C52.0331 28.1044 51.3485 28.1044 50.7209 28.1044C49.3516 28.1044 48.0964 27.8754 46.9553 27.4175C45.7572 26.9596 44.7302 26.33 43.8744 25.4714C43.0186 24.6128 42.2769 23.5253 41.7634 22.266C41.2499 21.0067 41.0217 19.4613 41.0217 17.7441C41.0217 16.4849 41.2499 15.2256 41.7064 14.0808C42.1628 12.936 42.7904 11.9057 43.5892 11.0471C44.3879 10.1886 45.4149 9.50169 46.556 8.98654C47.697 8.47139 49.0093 8.24243 50.4927 8.24243ZM50.6068 12.1919C49.5228 12.1919 48.667 12.4781 48.0394 13.1078C47.4118 13.7374 47.0124 14.6532 46.8412 15.798H54.03C54.03 15.3401 53.973 14.8822 53.8589 14.4815C53.7448 14.0236 53.5736 13.6801 53.2883 13.3367C53.0031 12.9933 52.6607 12.7071 52.2614 12.5354C51.7479 12.3064 51.2344 12.1919 50.6068 12.1919Z" fill="#0098C1"/>
<path d="M65.8974 17.8585L59.7355 8.52856H65.2698C65.6691 8.52856 65.9544 8.5858 66.1826 8.70028C66.3538 8.81476 66.525 8.98648 66.6961 9.21543L70.1194 14.9393C70.1764 14.7104 70.2905 14.4814 70.4046 14.3097C70.5187 14.0808 70.6328 13.8518 70.7469 13.6228L73.2003 9.32991C73.3714 9.04372 73.5426 8.872 73.7138 8.70028C73.8849 8.5858 74.1702 8.52856 74.4555 8.52856H79.7044L73.5426 17.5723L79.9897 27.7609H74.4555C74.0561 27.7609 73.7138 27.6464 73.4855 27.4747C73.2573 27.303 73.0291 27.0168 72.8579 26.7878L69.4347 20.8922C69.3777 21.1212 69.3206 21.2929 69.2065 21.4646C69.0924 21.6363 69.0353 21.808 68.9212 21.9797L66.1256 26.7878C65.9544 27.074 65.7833 27.303 65.555 27.4747C65.3268 27.7036 64.9845 27.7609 64.6422 27.7609H59.5073L65.8974 17.8585Z" fill="#0098C1"/>
<path d="M97.6193 27.8181H95.5654C95.1089 27.8181 94.7666 27.7609 94.5384 27.6464C94.3102 27.5319 94.0819 27.2457 93.9678 26.8451L93.5685 25.4713C93.112 25.9292 92.5985 26.2727 92.1421 26.6161C91.6857 26.9595 91.2293 27.2457 90.7158 27.4175C90.2023 27.6464 89.6888 27.8181 89.1183 27.9326C88.5477 28.0471 87.9201 28.1043 87.2925 28.1043C86.4938 28.1043 85.7521 27.9898 85.0674 27.7609C84.3828 27.5319 83.8122 27.2457 83.2988 26.7878C82.7853 26.3299 82.4429 25.8148 82.1577 25.1851C81.8724 24.5555 81.7583 23.8114 81.7583 22.9528C81.7583 22.2087 81.9295 21.5218 82.3288 20.835C82.7282 20.1481 83.3558 19.5185 84.2116 18.9461C85.0674 18.3737 86.2656 17.9158 87.6919 17.5723C89.1753 17.2289 90.944 16.9999 93.112 16.9427V15.8552C93.112 14.5959 92.8268 13.6228 92.3133 13.0504C91.7998 12.4208 91.001 12.1346 89.9741 12.1346C89.2324 12.1346 88.6048 12.2491 88.1483 12.4208C87.6349 12.5925 87.2355 12.7643 86.8361 12.9932C86.4938 13.2222 86.1514 13.3939 85.8091 13.5656C85.5239 13.7373 85.1815 13.8518 84.7822 13.8518C84.4969 13.8518 84.2116 13.7946 83.9834 13.6228C83.7552 13.4511 83.584 13.2794 83.4699 13.0504L82.6141 11.5622C84.7822 9.55887 87.4066 8.52856 90.5446 8.52856C91.6286 8.52856 92.6556 8.70028 93.5114 9.10096C94.3672 9.44439 95.1089 9.95954 95.7365 10.6464C96.3641 11.276 96.8205 12.0774 97.1058 12.9932C97.3911 13.909 97.5622 14.8821 97.5622 15.9696V27.8181H97.6193ZM88.7189 24.9562C89.1753 24.9562 89.6317 24.8989 90.0311 24.8417C90.4305 24.7272 90.7728 24.6127 91.1722 24.441C91.5145 24.2693 91.8569 24.0403 92.1992 23.8114C92.5415 23.5824 92.8838 23.239 93.1691 22.8956V19.6902C91.8568 19.7474 90.7158 19.8619 89.8029 20.0336C88.89 20.2053 88.2054 20.4343 87.6349 20.6632C87.0643 20.9494 86.722 21.2356 86.4938 21.5791C86.2656 21.9225 86.1515 22.3232 86.1515 22.7239C86.1515 23.5252 86.3797 24.0976 86.8361 24.441C87.3496 24.7845 87.9772 24.9562 88.7189 24.9562Z" fill="black"/>
<path d="M102.126 27.8182V8.75763H104.922C105.493 8.75763 105.892 9.04383 106.063 9.61622L106.406 11.1044C106.805 10.7038 107.204 10.3603 107.604 10.0169C108.003 9.67346 108.459 9.4445 108.973 9.1583C109.429 8.92935 109.943 8.75763 110.513 8.64315C111.084 8.52867 111.654 8.47144 112.282 8.47144C113.309 8.47144 114.222 8.64315 115.021 8.98659C115.819 9.33002 116.504 9.84517 117.018 10.4748C117.531 11.1044 117.987 11.8485 118.216 12.7644C118.501 13.623 118.615 14.596 118.615 15.6836V27.8182H114.051V15.6836C114.051 14.5388 113.765 13.623 113.252 12.9933C112.738 12.3637 111.883 12.0203 110.856 12.0203C110.057 12.0203 109.315 12.192 108.631 12.5354C107.946 12.8788 107.261 13.394 106.691 14.0236V27.8182H102.126Z" fill="black"/>
<path d="M138.014 27.8181H135.96C135.503 27.8181 135.161 27.7609 134.933 27.6464C134.704 27.5319 134.476 27.2457 134.362 26.8451L133.963 25.4713C133.506 25.9292 132.993 26.2727 132.536 26.6161C132.08 26.9595 131.624 27.2457 131.11 27.4175C130.597 27.6464 130.083 27.8181 129.513 27.9326C128.942 28.0471 128.314 28.1043 127.687 28.1043C126.888 28.1043 126.146 27.9898 125.462 27.7609C124.777 27.5319 124.207 27.2457 123.693 26.7878C123.18 26.3299 122.837 25.8148 122.552 25.1851C122.267 24.5555 122.153 23.8114 122.153 22.9528C122.153 22.2087 122.324 21.5218 122.723 20.835C123.123 20.1481 123.75 19.5185 124.606 18.9461C125.462 18.3737 126.66 17.9158 128.086 17.5723C129.57 17.2289 131.338 16.9999 133.506 16.9427V15.8552C133.506 14.5959 133.221 13.6228 132.708 13.0504C132.194 12.4208 131.395 12.1346 130.368 12.1346C129.627 12.1346 128.999 12.2491 128.543 12.4208C128.029 12.5925 127.63 12.7643 127.23 12.9932C126.888 13.2222 126.546 13.3939 126.203 13.5656C125.918 13.7373 125.576 13.8518 125.176 13.8518C124.891 13.8518 124.606 13.7946 124.378 13.6228C124.149 13.4511 123.978 13.2794 123.864 13.0504L123.008 11.5622C125.176 9.55887 127.801 8.52856 130.939 8.52856C132.023 8.52856 133.05 8.70028 133.906 9.10096C134.762 9.44439 135.503 9.95954 136.131 10.6464C136.758 11.276 137.215 12.0774 137.5 12.9932C137.842 13.909 137.957 14.8821 137.957 15.9696V27.8181H138.014ZM129.113 24.9562C129.57 24.9562 130.026 24.8989 130.425 24.8417C130.825 24.7272 131.167 24.6127 131.566 24.441C131.909 24.2693 132.251 24.0403 132.593 23.8114C132.936 23.5824 133.278 23.239 133.563 22.8956V19.6902C132.251 19.7474 131.11 19.8619 130.197 20.0336C129.284 20.2053 128.6 20.4343 128.029 20.6632C127.459 20.9494 127.116 21.2356 126.888 21.5791C126.66 21.9225 126.546 22.3232 126.546 22.7239C126.546 23.5252 126.774 24.0976 127.23 24.441C127.744 24.7845 128.371 24.9562 129.113 24.9562Z" fill="black"/>
<path d="M147.37 0.229004V27.8182H142.806V0.229004H147.37Z" fill="black"/>
<path d="M159.294 33.0269C159.18 33.3704 159.009 33.5993 158.781 33.771C158.553 33.9428 158.21 34 157.811 34H154.388L157.925 26.3872L150.223 8.75757H154.217C154.559 8.75757 154.844 8.87205 155.072 9.04376C155.244 9.21548 155.415 9.3872 155.529 9.61615L159.58 19.5185C159.694 19.8619 159.808 20.1481 159.922 20.5488C160.036 20.8922 160.093 21.2357 160.207 21.5791C160.321 21.2357 160.436 20.8922 160.55 20.5488C160.664 20.2054 160.778 19.8619 160.949 19.5185L164.772 9.67339C164.886 9.44444 165.057 9.21548 165.285 9.04376C165.513 8.87205 165.742 8.81481 166.027 8.81481H169.678L159.294 33.0269Z" fill="black"/>
<path d="M178.522 28.1045C176.867 28.1045 175.612 27.6466 174.756 26.7307C173.843 25.8149 173.444 24.4984 173.444 22.8385V12.192H171.504C171.276 12.192 171.048 12.1348 170.877 11.9631C170.705 11.7914 170.591 11.5624 170.591 11.219V9.38731L173.672 8.87216L174.642 3.66341C174.699 3.43445 174.813 3.20549 174.984 3.09102C175.156 2.97654 175.384 2.86206 175.669 2.86206H178.065V8.87216H183.086V12.1348H178.065V22.4378C178.065 23.0102 178.237 23.4681 178.522 23.8116C178.807 24.155 179.206 24.3267 179.72 24.3267C180.005 24.3267 180.233 24.2695 180.405 24.2122C180.576 24.155 180.747 24.0978 180.918 23.9833C181.032 23.926 181.203 23.8116 181.317 23.7543C181.432 23.6971 181.546 23.6398 181.66 23.6398C181.774 23.6398 181.888 23.6971 182.002 23.7543C182.116 23.8116 182.173 23.926 182.287 24.0405L183.657 26.2728C182.972 26.8452 182.23 27.2459 181.375 27.5321C180.519 27.8183 179.435 28.1045 178.522 28.1045Z" fill="black"/>
<path d="M191.416 8.75757H186.852V27.8182H191.416V8.75757Z" fill="black"/>
<path d="M191.815 1.77441C191.644 1.43098 191.416 1.08754 191.188 0.858586C190.903 0.572391 190.617 0.400673 190.275 0.228956C189.933 0.0572391 189.533 0 189.134 0C188.734 0 188.335 0.0572391 187.993 0.228956C187.65 0.400673 187.308 0.572391 187.08 0.858586C186.795 1.14478 186.623 1.43098 186.452 1.77441C186.281 2.11785 186.224 2.51852 186.224 2.91919C186.224 3.31987 186.281 3.6633 186.452 4.06397C186.623 4.40741 186.795 4.6936 187.08 4.9798C187.365 5.26599 187.65 5.43771 187.993 5.60943C188.335 5.78114 188.734 5.83838 189.134 5.83838C189.533 5.83838 189.933 5.78114 190.275 5.60943C190.617 5.43771 190.96 5.26599 191.188 4.9798C191.473 4.6936 191.644 4.40741 191.815 4.06397C191.987 3.72054 192.044 3.31987 192.044 2.91919C192.044 2.51852 191.987 2.17508 191.815 1.77441Z" fill="black"/>
<path d="M207.619 18.3738L207.334 18.8317L205.622 21.5219C205.622 21.5219 205.337 21.9226 205.166 22.2088L208.076 26.9596C208.19 27.1886 208.361 27.3603 208.589 27.532C208.817 27.7037 209.046 27.8182 209.388 27.8182H213.781L207.619 18.3738Z" fill="black"/>
<path d="M207.562 17.2862L213.496 8.75757H209.274C209.046 8.75757 208.817 8.81481 208.703 8.92929C208.532 9.04376 208.361 9.21548 208.247 9.44444L205.451 13.8518L207.334 16.8855L207.562 17.2862Z" fill="black"/>
<path d="M199.289 8.75757H194.896L201.115 17.9731L194.611 27.8182H198.719C199.004 27.8182 199.29 27.7037 199.461 27.532C199.632 27.3603 199.803 27.1313 199.974 26.9596L203.626 21.2929C203.797 21.0067 204.139 20.4916 204.139 20.4916L205.851 17.8586L200.545 9.32996C200.431 9.101 200.259 8.98652 200.145 8.87205C199.917 8.81481 199.632 8.75757 199.289 8.75757Z" fill="black"/>
</g>
<defs>
<clipPath id="clip0_1516_27">
<rect width="220" height="34" fill="white"/>
</clipPath>
</defs>
</svg>
